<svg viewBox="0 0 20 15" fill="none" xmlns="http://www.w3.org/2000/svg">
<path d="M17.5 0.291504H2.5C1.11937 0.291504 0 1.3176 0 2.58317V11.7498C0 13.0154 1.11937 14.0415 2.5 14.0415H17.5C18.8806 14.0415 20 13.0154 20 11.7498V2.58317C20 1.3176 18.8806 0.291504 17.5 0.291504ZM13.385 6.40671L18.6768 2.2497C18.7134 2.35712 18.75 2.46454 18.75 2.58317V11.7498C18.75 11.8293 18.717 11.8998 18.7 11.9747L13.385 6.40671ZM17.5 1.43734C17.583 1.43734 17.6562 1.46645 17.7344 1.48099L10 7.55817L2.26562 1.48099C2.34375 1.46645 2.41699 1.43734 2.5 1.43734H17.5ZM1.29945 11.9736C1.28234 11.8987 1.25 11.8293 1.25 11.7498V2.58317C1.25 2.46454 1.28723 2.35712 1.32387 2.2497L6.61379 6.4056L1.29945 11.9736ZM2.5 12.8957C2.37367 12.8957 2.25891 12.8621 2.14355 12.8296L7.56348 7.15193L9.59352 8.74647C9.71008 8.83939 9.85535 8.88526 10 8.88526C10.1446 8.88526 10.2899 8.83939 10.4065 8.74651L12.4365 7.15197L17.8564 12.8297C17.7417 12.8621 17.627 12.8957 17.5 12.8957H2.5Z" fill="#f28a17"/>
</svg>
