<svg viewBox="0 0 32 32" fill="none" xmlns="http://www.w3.org/2000/svg">
<path d="M15.64 25.48C15.76 25.52 15.88 25.54 16 25.54C16.12 25.54 16.24 25.53 16.35 25.48C16.45 25.45 25.89 22.11 25.89 11.88C25.89 6.44 21.45 2 16 2C10.55 2 6.10999 6.44 6.10999 11.88C6.10999 22.11 15.55 25.45 15.64 25.48ZM16 6.51C18.94 6.51 21.33 8.9 21.33 11.84C21.33 14.77 18.94 17.17 16 17.17C13.06 17.17 10.67 14.77 10.67 11.84C10.67 8.9 13.06 6.51 16 6.51Z" fill="#f28a17"/>
<path d="M21.82 23.8199C21.31 23.4899 20.62 23.6399 20.29 24.1499C19.96 24.6599 20.11 25.3499 20.62 25.6799C21.03 25.9399 21.16 26.1599 21.16 26.2299C21.16 26.6299 19.38 27.7899 15.99 27.7899C12.6 27.7899 10.83 26.6299 10.83 26.2299C10.83 26.1599 10.96 25.9399 11.37 25.6799C11.88 25.3499 12.03 24.6699 11.7 24.1499C11.37 23.6399 10.69 23.4899 10.17 23.8199C8.87999 24.6499 8.60999 25.5899 8.60999 26.2299C8.61999 28.6999 12.33 29.9999 16 29.9999C19.67 29.9999 23.38 28.6999 23.38 26.2299C23.38 25.5899 23.11 24.6399 21.82 23.8199Z" fill="#f28a17"/>
</svg>
