<svg width="88" height="88" viewBox="0 0 88 88" fill="none" xmlns="http://www.w3.org/2000/svg">
<path d="M87.9742 0H0.0257813C0.0115427 0 0 0.0115427 0 0.0257813V87.9742C0 87.9885 0.0115427 88 0.0257813 88H87.9742C87.9885 88 88 87.9885 88 87.9742V0.0257813C88 0.0115427 87.9885 0 87.9742 0Z" fill="#5281B8"/>
<path d="M47.0938 62.3905C47.9531 62.2186 49.5 61.8749 49.5 59.8124C49.5 59.8124 49.3281 54.6561 51.7344 53.9686C54.1406 53.2811 57.2344 58.953 60.5 61.1874C62.9063 62.7342 64.7969 62.5624 64.7969 62.5624L73.5625 62.3905C73.5625 62.3905 78.0313 62.0467 75.9688 58.4374C75.7969 58.0936 74.4219 55.8592 69.2656 51.2186C63.9375 46.0624 64.7969 46.9217 71.1563 38.1561C75.1094 32.828 76.8281 29.5624 76.3125 28.3592C75.625 27.1561 72.875 27.328 72.875 27.328H63.0781C62.0469 27.328 61.5313 27.4999 61.0156 28.3592C61.0156 28.3592 59.4688 32.6561 57.4063 36.0936C53.1094 43.4842 51.3906 43.828 50.5313 43.3124C48.9844 42.453 49.3281 39.1874 49.3281 36.953C49.3281 29.2186 50.5313 26.4686 47.0938 25.7811C44.8594 25.4374 36.9531 25.0936 34.5469 26.2967C33.3438 26.9842 32.6563 28.1874 33.1719 28.3592C33.6875 28.3592 35.2344 28.5311 36.0938 29.5624C37.4688 31.7967 37.6406 42.453 35.75 43.4842C33.1719 45.3749 26.6407 32.828 25.0938 28.703C24.75 27.6717 24.2344 27.4999 23.0313 27.1561H13.5782C12.5469 27.1561 11 27.328 11.6875 29.3905C16.3282 39.0155 25.9532 62.5624 43.3125 62.3905H47.0938Z" fill="white"/>
</svg>
